<svg version="1" xmlns="http://www.w3.org/2000/svg" width="346.667" height="346.667" viewBox="0 0 260.000000 260.000000"><path d="M123.2 12.7c-1.7 1-20 14-40.5 28.9-20.4 14.9-44.3 32.2-52.9 38.5-10.7 7.7-16.3 12.4-17.3 14.6-1.3 2.7-1.5 12.6-1.5 74 0 68.5.1 70.9 2 74 3.8 6.3 4 6.4 45.7 6.2 33.2 0 42.5-.5 52.1-2.4 1.2-.3 3.4-.8 5-1.1 4.9-1 19.6-7.7 25.4-11.6 11.5-7.7 21.5-19.6 27.7-32.9 6.8-14.7 8.9-25.6 9.1-47.3.1-9.4.2-27.5.3-40.1l.2-23.1-31.5.2c-29.3.1-31.9.2-37.3 2.2-16 5.8-27 17.2-33.6 34.8-2.7 7-4.9 18-4.4 21.4 1.2 7.9 11.1 13.2 18 9.7 4.7-2.5 6.2-4.9 8.7-15 2.7-10.6 6.1-17.3 10.9-21.3 6-5.1 9-5.7 26.5-5.9l16.2-.2.1 5.6c.4 41.3-.5 54.6-4 62.6-9.3 21.1-22.2 31.8-44.4 36.8-5.3 1.2-13.8 1.6-36.8 1.7l-29.9.1.2-58.3.3-58.2 11.1-8.1c30.9-22.5 79-57.2 80-57.8.6-.3 21.9 14.4 47.5 32.7l46.4 33.2.3 58.2.2 58.1-27.7.3c-26 .3-28 .4-30.5 2.3-7.5 5.6-6.5 17.9 1.9 21.9 2.9 1.4 8.1 1.6 37.4 1.6 37.7 0 39.2-.2 42.9-6.2 2-3.2 2-4.5 1.8-75.3-.3-69.2-.4-72.1-2.2-74.5-1.1-1.4-26.8-20.3-57.1-42-59.9-42.8-59-42.3-66.3-38.3z"/><path d="M124.5 128.1c-10.8 3.3-12.9 17-3.6 23.5 3 2.1 10.4 2.1 13.5 0 8.1-5.2 7.9-17.9-.3-22-4.1-2.1-6.4-2.5-9.6-1.5z"/></svg>